<svg width="19" height="19" viewBox="0 0 19 19" fill="none" xmlns="http://www.w3.org/2000/svg">
<g clip-path="url(#clip0_437_336)">
<path d="M15.0417 0.791748H3.95833C2.9089 0.793005 1.90282 1.21045 1.16076 1.95251C0.418698 2.69456 0.00125705 3.70065 0 4.75008L0 14.2501C0.00125705 15.2995 0.418698 16.3056 1.16076 17.0477C1.90282 17.7897 2.9089 18.2072 3.95833 18.2084H15.0417C16.0911 18.2072 17.0972 17.7897 17.8392 17.0477C18.5813 16.3056 18.9987 15.2995 19 14.2501V4.75008C18.9987 3.70065 18.5813 2.69456 17.8392 1.95251C17.0972 1.21045 16.0911 0.793005 15.0417 0.791748ZM3.95833 2.37508H15.0417C15.5157 2.37601 15.9786 2.51878 16.3708 2.78501C16.7631 3.05124 17.0666 3.42875 17.2425 3.86896L11.1799 9.93233C10.7338 10.3767 10.1297 10.6262 9.5 10.6262C8.8703 10.6262 8.26624 10.3767 7.82008 9.93233L1.7575 3.86896C1.93337 3.42875 2.23694 3.05124 2.62916 2.78501C3.02138 2.51878 3.4843 2.37601 3.95833 2.37508ZM15.0417 16.6251H3.95833C3.32844 16.6251 2.72435 16.3749 2.27895 15.9295C1.83356 15.4841 1.58333 14.88 1.58333 14.2501V5.93758L6.70067 11.0517C7.44375 11.793 8.45045 12.2092 9.5 12.2092C10.5495 12.2092 11.5563 11.793 12.2993 11.0517L17.4167 5.93758V14.2501C17.4167 14.88 17.1664 15.4841 16.721 15.9295C16.2756 16.3749 15.6716 16.6251 15.0417 16.6251Z" fill="black"/>
</g>
<defs>
<clipPath id="clip0_437_336">
<rect width="19" height="19" fill="white"/>
</clipPath>
</defs>
</svg>
